<svg xmlns="http://www.w3.org/2000/svg" xmlns:xlink="http://www.w3.org/1999/xlink" width="40" zoomAndPan="magnify" viewBox="0 0 30 30.000001" height="40" preserveAspectRatio="xMidYMid meet" version="1.0"><defs><clipPath id="12aaf5cbd8"><path d="M 3.378906 2.554688 L 26.605469 2.554688 L 26.605469 26 L 3.378906 26 Z M 3.378906 2.554688 " clip-rule="nonzero"/></clipPath></defs><g clip-path="url(#12aaf5cbd8)"><path fill="#ffffff" d="M 21.03125 19.777344 C 21.285156 20.578125 22.28125 20.78125 23.113281 20.898438 C 24.007812 21.027344 24.785156 20.84375 25.386719 20.167969 C 25.972656 19.507812 26.390625 18.496094 26.527344 17.382812 C 26.597656 16.832031 26.578125 15.261719 26.511719 14.535156 C 26.25 11.5 25.253906 8.546875 23.710938 6.21875 C 22.625 4.578125 20.773438 2.554688 18.820312 2.554688 C 17.953125 2.554688 17.703125 3.101562 16.855469 3.964844 C 16.390625 4.4375 16.027344 4.8125 16.171875 5.523438 C 12.574219 8.84375 7.21875 14.109375 4.492188 18.179688 C 3.933594 19.015625 3.390625 19.855469 4.039062 20.625 C 4.332031 20.972656 4.632812 21.054688 5.054688 21.027344 C 5.214844 21.015625 5.371094 20.980469 5.523438 20.921875 C 5.6875 22.132812 6.765625 22.742188 7.726562 22.328125 C 7.734375 25.40625 10.839844 26.503906 12.273438 24.179688 C 13.035156 22.945312 13.164062 21.105469 12.214844 19.378906 C 13.242188 19.355469 18.796875 19.503906 21.03125 19.777344 Z M 21.03125 19.777344 " fill-opacity="1" fill-rule="nonzero"/></g><path fill="#ffc86c" d="M 15.71875 11.777344 C 15.039062 13.15625 12.96875 12.996094 12.136719 11.71875 L 11.976562 11.472656 C 11.730469 11.703125 10.214844 13.328125 9.988281 13.574219 C 10.066406 13.753906 10.191406 14.035156 10.242188 14.28125 C 10.296875 14.53125 10.300781 15.089844 10.253906 15.316406 C 10.175781 15.703125 9.914062 16.066406 9.585938 16.242188 C 9.109375 16.503906 8.324219 16.488281 7.90625 16.207031 L 7.773438 16.113281 C 6.546875 17.570312 5.226562 19.4375 5.226562 19.5625 C 5.226562 19.570312 5.609375 19.382812 6.078125 19.144531 C 7.011719 18.667969 7.089844 18.644531 7.257812 18.785156 C 7.574219 19.0625 6.921875 19.777344 6.875 20.535156 C 6.859375 20.765625 6.863281 20.816406 6.921875 20.929688 C 7.109375 21.296875 7.453125 20.980469 7.542969 20.371094 C 7.65625 19.582031 7.234375 18.910156 7.777344 18.648438 C 8 18.539062 9.128906 18.269531 9.371094 18.265625 C 9.558594 18.261719 9.585938 18.269531 9.671875 18.351562 C 9.8125 18.488281 9.835938 18.605469 9.820312 19.035156 C 9.773438 20.050781 9.089844 21.09375 9.085938 22.347656 C 9.085938 23.417969 9.726562 24.28125 10.523438 24.011719 C 10.734375 23.941406 11.074219 23.59375 11.207031 23.320312 C 11.449219 22.816406 11.539062 22.355469 11.515625 21.726562 C 11.484375 20.886719 11.292969 20.40625 10.527344 19.214844 C 10.234375 18.757812 10.179688 18.632812 10.210938 18.476562 C 10.285156 18.089844 10.785156 18.085938 11.179688 18.054688 L 11.199219 17.765625 C 11.421875 14.558594 15.757812 13.625 16.632812 17.816406 L 16.699219 18.140625 L 17.628906 18.15625 C 17.78125 17.046875 19.042969 15.984375 19.996094 16.4375 C 20.914062 16.875 21.011719 18.347656 21.050781 18.398438 C 21.066406 18.417969 21.835938 18.515625 21.847656 18.496094 C 21.859375 18.480469 21.785156 17.28125 21.742188 16.792969 C 21.421875 13.304688 20.089844 9.4375 17.992188 6.632812 C 18 6.632812 17.632812 6.15625 17.601562 6.132812 C 17.566406 6.105469 17.507812 6.144531 17.296875 6.335938 C 16.832031 6.753906 15.429688 8.0625 15.371094 8.128906 C 15.308594 8.199219 15.3125 8.199219 15.402344 8.296875 C 16 8.9375 16.273438 10.660156 15.71875 11.777344 Z M 18.414062 11.550781 C 19.335938 11.25 20.296875 11.84375 20.300781 12.988281 C 20.304688 14.679688 18.199219 15.613281 17.339844 14.269531 C 16.738281 13.332031 17.296875 11.910156 18.414062 11.550781 Z M 18.414062 11.550781 " fill-opacity="1" fill-rule="nonzero"/><path fill="#e58985" d="M 17.890625 14.210938 C 18.570312 14.820312 19.832031 14.167969 19.839844 12.988281 C 19.839844 12.726562 19.832031 12.671875 19.753906 12.5 C 19.644531 12.269531 19.429688 12.0625 19.222656 11.988281 C 19.109375 11.957031 18.992188 11.941406 18.875 11.941406 C 17.785156 11.953125 17.109375 13.507812 17.890625 14.210938 Z M 17.890625 14.210938 " fill-opacity="1" fill-rule="nonzero"/><path fill="#ffa800" d="M 22.046875 15.492188 C 22.199219 16.5 22.300781 17.785156 22.3125 19.3125 C 22.597656 19.449219 23.304688 19.554688 23.535156 19.570312 C 23.9375 19.59375 24.105469 19.539062 24.332031 19.300781 C 24.738281 18.882812 25.050781 18.132812 25.175781 17.273438 C 25.226562 16.914062 25.226562 15.328125 25.171875 14.722656 C 24.949219 12.144531 24.253906 9.8125 23.113281 7.820312 C 22.300781 6.402344 20.660156 4.214844 19.042969 3.929688 C 19.050781 3.929688 18.847656 3.898438 18.816406 3.898438 C 18.714844 3.898438 17.835938 4.949219 17.722656 5.011719 C 17.65625 5.050781 17.558594 5.191406 17.511719 5.253906 C 17.578125 5.382812 17.628906 5.503906 17.941406 5.875 C 20.226562 8.609375 21.59375 12.445312 22.046875 15.492188 Z M 22.046875 15.492188 " fill-opacity="1" fill-rule="nonzero"/><path fill="#e58985" d="M 14.054688 12.277344 C 14.839844 12.277344 15.273438 11.914062 15.480469 11.085938 C 15.539062 10.855469 15.546875 10.730469 15.546875 10.300781 C 15.546875 9.988281 15.558594 9.546875 15.265625 8.929688 C 15.125 8.640625 15.046875 8.585938 14.96875 8.511719 C 14.007812 9.410156 12.355469 11.066406 12.339844 11.125 C 12.285156 11.335938 12.914062 12.277344 14.054688 12.277344 Z M 14.054688 12.277344 " fill-opacity="1" fill-rule="nonzero"/><path fill="#e58985" d="M 19.847656 16.886719 C 19.300781 16.570312 18.570312 17.109375 18.242188 17.660156 C 18.140625 17.820312 18.015625 18.144531 18.042969 18.167969 C 18.046875 18.175781 20.472656 18.335938 20.496094 18.328125 C 20.554688 18.304688 20.550781 18.175781 20.472656 17.886719 C 20.277344 17.132812 19.886719 16.886719 19.847656 16.886719 Z M 19.847656 16.886719 " fill-opacity="1" fill-rule="nonzero"/><path fill="#e58985" d="M 9.527344 15.742188 C 10.085938 15.25 9.75 14.023438 9.652344 13.988281 C 9.605469 13.972656 8.066406 15.734375 8.066406 15.796875 C 8.066406 15.902344 8.972656 16.234375 9.527344 15.742188 Z M 9.527344 15.742188 " fill-opacity="1" fill-rule="nonzero"/><path fill="#e58985" d="M 13.410156 15.511719 C 12.351562 15.792969 11.683594 16.867188 11.625 17.753906 L 11.609375 18.03125 C 15.253906 18.03125 16.171875 18.148438 16.210938 18.109375 C 16.242188 18.078125 16.066406 17.40625 15.953125 17.121094 C 15.410156 15.761719 14.335938 15.265625 13.410156 15.511719 Z M 13.410156 15.511719 " fill-opacity="1" fill-rule="nonzero"/><path fill="#000000" d="M 5.238281 18.683594 C 4.652344 19.5625 4.550781 19.835938 4.726562 20.042969 C 4.804688 20.136719 4.816406 20.140625 4.988281 20.128906 C 5.148438 20.117188 5.269531 20.066406 5.972656 19.710938 C 6.414062 19.488281 6.765625 19.324219 6.757812 19.34375 C 6.5 19.945312 6.402344 20.292969 6.402344 20.613281 C 6.402344 21.78125 7.65625 21.933594 7.957031 20.652344 C 8.015625 20.417969 8.019531 19.816406 7.96875 19.398438 C 7.9375 19.128906 7.941406 19.097656 7.988281 19.0625 C 8.058594 19.007812 9.332031 18.699219 9.359375 18.726562 C 9.402344 18.765625 9.367188 19.226562 9.304688 19.46875 C 9.113281 20.199219 8.789062 20.964844 8.667969 21.738281 C 8.28125 24.269531 10.445312 25.429688 11.507812 23.707031 C 11.914062 23.050781 12.074219 22.144531 11.941406 21.265625 C 11.835938 20.554688 11.605469 20.035156 10.964844 19.046875 C 10.816406 18.8125 10.691406 18.609375 10.691406 18.59375 C 10.691406 18.539062 10.832031 18.523438 11.757812 18.488281 C 13.203125 18.433594 14.027344 18.5 16.972656 18.601562 C 18.984375 18.667969 19.945312 18.734375 21.230469 18.894531 C 21.929688 18.980469 21.859375 18.941406 21.859375 19.234375 C 21.855469 19.539062 21.898438 19.613281 22.144531 19.734375 C 22.3125 19.816406 22.835938 19.945312 23.238281 20.003906 C 23.910156 20.101562 24.359375 19.96875 24.71875 19.566406 C 25.179688 19.050781 25.523438 18.191406 25.636719 17.269531 C 25.691406 16.824219 25.679688 15.332031 25.617188 14.609375 C 25.050781 8.125 21.265625 3.753906 19.132812 3.480469 C 18.398438 3.386719 18.582031 3.492188 17.496094 4.597656 C 17.300781 4.796875 17.117188 5.003906 17.089844 5.050781 C 16.917969 5.378906 17.269531 5.75 17.261719 5.742188 C 13.601562 9.089844 8 14.558594 5.238281 18.683594 Z M 9.652344 13.988281 C 9.75 14.023438 10.085938 15.253906 9.527344 15.742188 C 8.972656 16.234375 8.066406 15.902344 8.066406 15.796875 C 8.066406 15.734375 9.605469 13.972656 9.652344 13.988281 Z M 16.210938 18.109375 C 16.171875 18.148438 15.253906 18.03125 11.605469 18.03125 L 11.625 17.753906 C 11.683594 16.867188 12.351562 15.792969 13.40625 15.511719 C 14.335938 15.265625 15.410156 15.761719 15.949219 17.121094 C 16.0625 17.40625 16.242188 18.078125 16.210938 18.109375 Z M 20.496094 18.328125 C 20.472656 18.335938 18.046875 18.175781 18.042969 18.167969 C 18.015625 18.144531 18.140625 17.820312 18.238281 17.660156 C 18.570312 17.109375 19.300781 16.570312 19.847656 16.886719 C 19.886719 16.886719 20.277344 17.132812 20.472656 17.886719 C 20.546875 18.175781 20.554688 18.304688 20.496094 18.328125 Z M 17.722656 5.011719 C 17.835938 4.949219 18.714844 3.898438 18.816406 3.898438 C 18.847656 3.898438 19.046875 3.929688 19.042969 3.929688 C 20.660156 4.214844 22.300781 6.402344 23.113281 7.820312 C 24.253906 9.808594 24.949219 12.144531 25.171875 14.722656 C 25.226562 15.328125 25.226562 16.914062 25.175781 17.269531 C 25.050781 18.132812 24.738281 18.882812 24.332031 19.300781 C 24.105469 19.535156 23.9375 19.59375 23.535156 19.566406 C 23.304688 19.554688 22.597656 19.445312 22.3125 19.3125 C 22.300781 17.785156 22.199219 16.496094 22.046875 15.492188 C 21.59375 12.445312 20.226562 8.609375 17.941406 5.875 C 17.628906 5.503906 17.582031 5.382812 17.511719 5.253906 C 17.558594 5.191406 17.65625 5.050781 17.722656 5.011719 Z M 15.371094 8.128906 C 15.429688 8.058594 16.832031 6.753906 17.292969 6.332031 C 17.507812 6.140625 17.566406 6.105469 17.601562 6.132812 C 17.628906 6.15625 18 6.632812 17.992188 6.632812 C 20.089844 9.4375 21.421875 13.304688 21.742188 16.792969 C 21.785156 17.28125 21.859375 18.476562 21.847656 18.496094 C 21.835938 18.519531 21.066406 18.417969 21.050781 18.398438 C 21.011719 18.347656 20.914062 16.875 19.996094 16.4375 C 19.042969 15.984375 17.78125 17.046875 17.628906 18.15625 L 16.699219 18.136719 L 16.632812 17.8125 C 15.757812 13.625 11.421875 14.558594 11.199219 17.765625 L 11.179688 18.054688 C 10.785156 18.082031 10.285156 18.089844 10.210938 18.476562 C 10.179688 18.632812 10.234375 18.757812 10.527344 19.214844 C 11.292969 20.40625 11.480469 20.886719 11.515625 21.726562 C 11.539062 22.351562 11.449219 22.816406 11.207031 23.320312 C 11.074219 23.59375 10.734375 23.9375 10.523438 24.007812 C 9.726562 24.28125 9.085938 23.417969 9.085938 22.347656 C 9.089844 21.09375 9.773438 20.050781 9.816406 19.03125 C 9.835938 18.605469 9.8125 18.488281 9.667969 18.351562 C 9.582031 18.269531 9.558594 18.261719 9.371094 18.261719 C 9.128906 18.265625 8 18.539062 7.777344 18.644531 C 7.234375 18.90625 7.652344 19.582031 7.542969 20.371094 C 7.453125 20.980469 7.109375 21.296875 6.921875 20.929688 C 6.863281 20.816406 6.859375 20.765625 6.871094 20.535156 C 6.921875 19.773438 7.570312 19.058594 7.253906 18.785156 C 7.089844 18.640625 7.011719 18.667969 6.078125 19.144531 C 5.609375 19.382812 5.226562 19.570312 5.226562 19.5625 C 5.226562 19.4375 6.546875 17.570312 7.773438 16.113281 L 7.910156 16.207031 C 8.324219 16.488281 9.109375 16.507812 9.589844 16.246094 C 9.914062 16.066406 10.175781 15.703125 10.257812 15.316406 C 10.304688 15.089844 10.296875 14.53125 10.246094 14.28125 C 10.191406 14.035156 10.066406 13.753906 9.988281 13.574219 C 10.214844 13.328125 11.730469 11.703125 11.976562 11.472656 L 12.140625 11.722656 C 12.96875 12.996094 15.039062 13.15625 15.71875 11.78125 C 16.273438 10.660156 16 8.941406 15.40625 8.296875 C 15.3125 8.199219 15.3125 8.199219 15.371094 8.128906 Z M 14.964844 8.507812 C 15.046875 8.582031 15.125 8.636719 15.265625 8.929688 C 15.558594 9.546875 15.546875 9.988281 15.546875 10.296875 C 15.546875 10.726562 15.539062 10.851562 15.480469 11.082031 C 15.273438 11.914062 14.839844 12.277344 14.054688 12.277344 C 12.914062 12.277344 12.285156 11.335938 12.339844 11.121094 C 12.355469 11.066406 14.007812 9.410156 14.96875 8.511719 Z M 14.964844 8.507812 " fill-opacity="1" fill-rule="nonzero"/><path fill="#000000" d="M 20.300781 12.988281 C 20.296875 11.84375 19.335938 11.25 18.414062 11.550781 C 17.296875 11.910156 16.738281 13.332031 17.339844 14.269531 C 18.199219 15.609375 20.304688 14.683594 20.300781 12.988281 Z M 18.875 11.941406 C 18.992188 11.941406 19.109375 11.957031 19.222656 11.988281 C 19.429688 12.058594 19.644531 12.269531 19.753906 12.5 C 19.832031 12.671875 19.839844 12.726562 19.839844 12.988281 C 19.832031 14.167969 18.570312 14.820312 17.890625 14.210938 C 17.109375 13.507812 17.785156 11.953125 18.875 11.941406 Z M 18.875 11.941406 " fill-opacity="1" fill-rule="nonzero"/></svg>